# xmcd
#
# Track frame offsets:
#	203
#	7695
#	24626
#	40956
#	56911
#	73247
#	89992
#	107573
#	122579
#	138175
#	165218
#
# Disc length: 2462 seconds
#
# Revision: 0
# Processed by: cddbd v1.5.2PL0 Copyright (c) Steve Scherf et al.
# Submitted via: EasyCDDAExtractor 5.0.2.1
#
DISCID=8e099c0b
DTITLE=Starfighter - Orion
DYEAR=2005
DGENRE=Belgian
TTITLE0=Theme
TTITLE1=Pretend and Lie
TTITLE2=Tired
TTITLE3=#1 Today
TTITLE4=Access Wars
TTITLE5=Crossfire
TTITLE6=Rainy Days
TTITLE7=No Star
TTITLE8=Not at Home
TTITLE9=Just Called to Say
TTITLE10=Demons at play
EXTD=
EXTT0=
EXTT1=
EXTT2=
EXTT3=
EXTT4=
EXTT5=
EXTT6=
EXTT7=
EXTT8=
EXTT9=
EXTT10=
PLAYORDER=
